{"asset":{"version":"2.0","generator":"Blockbench 4.5.2 glTF exporter"},"scenes":[{"nodes":[1],"name":"blockbench_export"}],"scene":0,"nodes":[{"name":"cube","mesh":0},{"children":[0]}],"bufferViews":[{"buffer":0,"byteOffset":0,"byteLength":16992,"target":34962,"byteStride":12},{"buffer":0,"byteOffset":16992,"byteLength":16992,"target":34962,"byteStride":12},{"buffer":0,"byteOffset":33984,"byteLength":11328,"target":34962,"byteStride":8},{"buffer":0,"byteOffset":45312,"byteLength":4248,"target":34963}],"buffers":[{"byteLength":49560,"uri":"data:application/octet-stream;base64,"}],"accessors":[{"bufferView":0,"componentType":5126,"count":1416,"max":[1.5,4.1875,0.9375],"min":[-1.5,0,-0.9375],"type":"VEC3"},{"bufferView":1,"componentType":5126,"count":1416,"max":[1,1,1],"min":[-1,-1,-1],"type":"VEC3"},{"bufferView":2,"componentType":5126,"count":1416,"max":[0.76953125,1],"min":[0,0.23046875],"type":"VEC2"},{"bufferView":3,"componentType":5123,"count":2124,"max":[1415],"min":[0],"type":"SCALAR"}],"materials":[{"pbrMetallicRoughness":{"metallicFactor":0,"roughnessFactor":1,"baseColorTexture":{"index":0}},"alphaMode":"MASK","alphaCutoff":0.05,"doubleSided":true}],"textures":[{"sampler":0,"source":0,"name":"Building_1"}],"samplers":[{"magFilter":9728,"minFilter":9728,"wrapS":33071,"wrapT":33071}],"images":[{"mimeType":"image/png","uri":"data:image/png;base64,"}],"meshes":[{"primitives":[{"mode":4,"attributes":{"POSITION":0,"NORMAL":1,"TEXCOORD_0":2},"indices":3,"material":0}]}]}