{"asset":{"version":"2.0","generator":"Blockbench 4.5.1 glTF exporter"},"scenes":[{"nodes":[4],"name":"blockbench_export"}],"scene":0,"nodes":[{"translation":[0.046875,0.546875,0],"name":"bone2"},{"rotation":[0,0,-0.3826834323650898,0.9238795325112867],"translation":[0.046875,0.546875,0],"name":"cylinder","mesh":0},{"name":"cube","mesh":1},{"name":"bone","children":[0,1,2]},{"children":[3]}],"bufferViews":[{"buffer":0,"byteOffset":0,"byteLength":960,"target":34962,"byteStride":12},{"buffer":0,"byteOffset":960,"byteLength":960,"target":34962,"byteStride":12},{"buffer":0,"byteOffset":1920,"byteLength":640,"target":34962,"byteStride":8},{"buffer":0,"byteOffset":2560,"byteLength":192,"target":34963},{"buffer":0,"byteOffset":2752,"byteLength":768,"target":34962,"byteStride":12},{"buffer":0,"byteOffset":3520,"byteLength":768,"target":34962,"byteStride":12},{"buffer":0,"byteOffset":4288,"byteLength":512,"target":34962,"byteStride":8},{"buffer":0,"byteOffset":4800,"byteLength":192,"target":34963}],"buffers":[{"byteLength":4992,"uri":"data:application/octet-stream;base64,"}],"accessors":[{"bufferView":0,"componentType":5126,"count":80,"max":[0.03750000149011612,0.0625,0.03750000149011612],"min":[-0.03750000149011612,0,-0.03750000149011612],"type":"VEC3"},{"bufferView":1,"componentType":5126,"count":80,"max":[1,1,1],"min":[-1,-1,-1],"type":"VEC3"},{"bufferView":2,"componentType":5126,"count":80,"max":[0.671875,0.171875],"min":[0.59375,0.109375],"type":"VEC2"},{"bufferView":3,"componentType":5123,"count":96,"max":[79],"min":[0],"type":"SCALAR"},{"bufferView":4,"componentType":5126,"count":64,"max":[0.125,0.6875,0.125],"min":[-0.125,0,-0.125],"type":"VEC3"},{"bufferView":5,"componentType":5126,"count":64,"max":[1,1,1],"min":[-1,-1,-1],"type":"VEC3"},{"bufferView":6,"componentType":5126,"count":64,"max":[1,0.75],"min":[0.25,0],"type":"VEC2"},{"bufferView":7,"componentType":5123,"count":96,"max":[63],"min":[0],"type":"SCALAR"}],"materials":[{"pbrMetallicRoughness":{"metallicFactor":0,"roughnessFactor":1,"baseColorTexture":{"index":0}},"alphaMode":"MASK","alphaCutoff":0.05,"doubleSided":true}],"textures":[{"sampler":0,"source":0,"name":"carton.png"}],"samplers":[{"magFilter":9728,"minFilter":9728,"wrapS":33071,"wrapT":33071}],"images":[{"mimeType":"image/png","uri":"data:image/png;base64,"}],"meshes":[{"primitives":[{"mode":4,"attributes":{"POSITION":0,"NORMAL":1,"TEXCOORD_0":2},"indices":3,"material":0}]},{"primitives":[{"mode":4,"attributes":{"POSITION":4,"NORMAL":5,"TEXCOORD_0":6},"indices":7,"material":0}]}]}