{"asset":{"version":"2.0","generator":"Blockbench 4.5.2 glTF exporter"},"scenes":[{"nodes":[1],"name":"blockbench_export"}],"scene":0,"nodes":[{"translation":[-0.0625,2.625,1.875],"name":"stall","mesh":0},{"children":[0]}],"bufferViews":[{"buffer":0,"byteOffset":0,"byteLength":3360,"target":34962,"byteStride":12},{"buffer":0,"byteOffset":3360,"byteLength":3360,"target":34962,"byteStride":12},{"buffer":0,"byteOffset":6720,"byteLength":2240,"target":34962,"byteStride":8},{"buffer":0,"byteOffset":8960,"byteLength":840,"target":34963}],"buffers":[{"byteLength":9800,"uri":"data:application/octet-stream;base64,"}],"accessors":[{"bufferView":0,"componentType":5126,"count":280,"max":[1.875,0.84375,0],"min":[-1.78125,-2.78125,-4.5],"type":"VEC3"},{"bufferView":1,"componentType":5126,"count":280,"max":[1,1,1],"min":[-1,-1,-1],"type":"VEC3"},{"bufferView":2,"componentType":5126,"count":280,"max":[0.82421875,1],"min":[0,0.15625],"type":"VEC2"},{"bufferView":3,"componentType":5123,"count":420,"max":[279],"min":[0],"type":"SCALAR"}],"materials":[{"pbrMetallicRoughness":{"metallicFactor":0,"roughnessFactor":1,"baseColorTexture":{"index":0}},"alphaMode":"MASK","alphaCutoff":0.05,"doubleSided":true}],"textures":[{"sampler":0,"source":0,"name":"stall"}],"samplers":[{"magFilter":9728,"minFilter":9728,"wrapS":33071,"wrapT":33071}],"images":[{"mimeType":"image/png","uri":"data:image/png;base64,"}],"meshes":[{"primitives":[{"mode":4,"attributes":{"POSITION":0,"NORMAL":1,"TEXCOORD_0":2},"indices":3,"material":0}]}]}