# Made in Blockbench 4.5.2
mtllib stall.mtl

o stall
v -0.625 3.375 1.1875
v -0.6249999999999999 3.375 1.875
v -0.625 0 1.1875
v -0.6249999999999999 0 1.875
v -0.5625 3.375 1.1875
v -0.5624999999999999 3.375 1.875
v -0.5625 0 1.1875
v -0.5624999999999999 0 1.875
v 1.5625 1.875 1.75
v 1.5625 1.875 1.1875
v 1.5625 1.75 1.75
v 1.5625 1.75 1.1875
v -0.5625 1.875 1.75
v -0.5625 1.875 1.1875
v -0.5625 1.75 1.75
v -0.5625 1.75 1.1875
v 1.625 3.3749999999999996 1.75
v 1.625 3.3749999999999996 1.1875
v 1.625 0 1.75
v 1.625 0 1.1875
v 1.5625 3.3749999999999996 1.75
v 1.5625 3.3749999999999996 1.1875
v 1.5625 0 1.75
v 1.5625 0 1.1875
v 1.6874999999999996 0.0625 1.8125
v 1.6874999999999996 0.0625 1.25
v -0.6250000000000004 0.0625 1.8125
v -0.6250000000000004 0.0625 1.25
v 1.5625 0.9375 1.75
v 1.5625 0.9375 1.1875
v 1.5625 0.8125 1.1875
v -0.5625 0.9375 1.75
v -0.5625 0.9375 1.1875
v -0.5625 0.8125 1.1875
v 1.5625 0.8125 1.75
v -0.5625 0.8125 1.75
v -0.5625000000000002 3.2499999999186695 1.1874999997560254
v -0.5625000000000002 3.24999999975602 1.3124999997560254
v 1.5624999999999991 3.249999999918661 1.1874999997560252
v 1.5624999999999991 3.2499999997560116 1.3124999997560252
v -0.5624999999999998 3.3749999999186695 1.187499999918675
v 1.5624999999999996 3.374999999918661 1.1874999999186748
v 1.6874999999999996 3.3125 1.25
v 1.6874999999999996 2.5625 1.8125
v 1.6874999999999996 2.5625 1.25
v -0.6250000000000004 3.3125 1.25
v -0.6250000000000004 2.5625 1.8125
v -0.6250000000000004 2.5625 1.25
v 1.6874999999999996 0.8125 1.25
v 1.6874999999999996 0.0625 1.25
v -0.6250000000000004 0.8125 1.25
v -0.6250000000000004 0.0625 1.25
v 1.6875 0.9375 -0.9375
v 1.6875 0.9375 -1.625
v 1.6875 0.8125 -0.9375
v 1.6875 0.8125 -1.625
v -0.5 0.9375 -0.9375
v -0.5 0.9375 -1.625
v -0.5 0.8125 -0.9375
v -0.5 0.8125 -1.625
v 1.625 0.8124999999999996 -0.9375
v 1.625 0 -0.9375
v 1.5625 0.8124999999999996 -0.9375
v 1.5625 0.8124999999999996 -1.625
v 1.5625 0 -0.9375
v 1.5625 0 -1.625
v -0.53125 -0.03125 -1.5625
v -0.53125 0.84375 -1.5625
v 1.65625 -0.03125 -1.5624999999999996
v 1.65625 0.84375 -1.5625
v 1.71875 0 1.71875
v 1.71875 0 -1.71875
v -1.71875 0 1.71875
v -1.71875 0 -1.71875
v -1.6249999999999996 3.40625 1.71875
v -1.6249999999999996 3.40625 -1.71875
v -1.6250000000000004 -0.03125 1.71875
v -1.6250000000000004 -0.03125 -1.71875
v -1.5624999999999993 3.2500000011385484 -0.9375000002439737
v -1.6874999999999993 3.2500000011385484 -0.9375000002439742
v -1.5624999999999998 3.2499999982921777 1.2499999997560252
v -1.6874999999999998 3.2499999982921777 1.2499999997560252
v -1.5624999999999993 3.3750000011385484 -0.9375000000813243
v -1.5624999999999998 3.3749999982921777 1.2499999999186748
v -1.6000000001626424 0.1250000824628188 -0.9374999970548972
v -1.6000000001626424 8.246281879564776e-8 -0.9375000029450984
v -1.6000000001626424 0.1249999793842953 1.2500000029451002
v -1.6000000001626424 -2.061570425482273e-8 1.249999997054899
v -1.6500000001626423 0.1250000824628188 -0.9374999970548972
v -1.6500000001626423 0.1249999793842953 1.2500000029451002
v 1.6250000000000064 -0.031249999999999556 1.7187500000000004
v 1.6249999999999927 3.4062500000000004 1.7187499999999996
v 1.6250000000000073 -0.031250000000000444 -1.7187499999999996
v 1.6249999999999936 3.4062499999999996 -1.7187500000000004
v 1.6000000001626427 0.124999999999996 1.1874999999999998
v 1.6000000001626427 -3.9968028886505635e-15 1.187499999999999
v 1.6000000001626424 0.12500000000000133 -0.9375
v 1.6000000001626424 1.3322676295501878e-15 -0.9375
v 1.6500000001626425 0.124999999999996 1.1874999999999993
v 1.650000000162642 0.12500000000000133 -0.9375
v 1.5625000000000002 3.2499999985361576 1.1874999997560256
v 1.6875000000000002 3.2499999985361576 1.1874999997560256
v 1.5625000000000002 3.250000001707816 -1.2500000002439737
v 1.6875000000000002 3.250000001707816 -1.2500000002439737
v 1.5625000000000002 3.3749999985361576 1.1874999999186748
v 1.5625000000000002 3.375000001707816 -1.2500000000813243
v 1.71875 3.375 1.71875
v 1.71875 3.375 -1.71875
v -1.71875 3.375 1.71875
v -1.71875 3.375 -1.71875
v 1.8125 3.1875000000000004 -1.6919872981077808
v 1.8125 2.6875 -2.5580127018922187
v -1.8125 3.1875 -1.6919872981077808
v -1.8125 2.6874999999999996 -2.5580127018922187
v 1.8125 2.2499999999999996 -2.5625
v 1.8125 2.6874999999999996 -2.5625
v -1.8125 2.249999999999999 -2.5625
v -1.8125 2.687499999999999 -2.5625
v 1.8125000000000004 2.625000000081329 -2.5000000002439755
v 1.8125000000000004 2.625000000243978 -2.6250000002439755
v -1.8124999999999991 2.625000000081314 -2.5000000002439755
v -1.8124999999999991 2.625000000243964 -2.6250000002439755
v 1.8125 2.750000000081329 -2.500000000081325
v -1.8124999999999991 2.750000000081314 -2.500000000081325
v 1.6874999999999998 2.453136505615672 -1.5094610085210545
v 1.6875000000000004 2.744307931356009 -2.596127563096257
v 1.6874999999999996 2.380692068643992 -1.5288724369037445
v 1.6875000000000002 2.671863494384328 -2.615538991478946
v -1.6875000000000004 2.4531365056156718 -1.5094610085210545
v -1.6874999999999996 2.744307931356008 -2.596127563096257
v -1.6875000000000004 2.380692068643992 -1.5288724369037445
v -1.6875 2.671863494384328 -2.615538991478946
v -0.5 3.4375 -0.9375
v -0.5 3.4374999999999996 -1.625
v -0.5 0 -0.9375
v -0.5 0 -1.625
v -0.5625 3.4374999999999996 -0.9375
v -0.5625 3.4374999999999996 -1.625
v -0.5625 0 -0.9375
v -0.5625 0 -1.625
v -1.5625 3.4374999999999996 -0.9375
v -1.5625 3.4374999999999996 -1.625
v -1.5625 0 -0.9375
v -1.5625 0 -1.625
v -1.625 3.4375 -0.9375
v -1.625 0 -0.9375
v -1.5625 1.8749999999999998 -1.625
v -1.5625 1.8749999999999998 -0.9375
v -1.5625 1.7499999999999998 -1.625
v -1.5625 1.7499999999999998 -0.9375
v -0.5625 1.8749999999999998 -1.625
v -0.5625 1.8749999999999998 -0.9375
v -0.5625 1.7499999999999998 -1.625
v -0.5625 1.7499999999999998 -0.9375
v -1.5625 0.9375 -1.625
v -1.5625 0.9375 -0.9375
v -1.5625 0.8125 -1.625
v -1.5625 0.8125 -0.9375
v -0.5625 0.9375 -1.625
v -0.5624999999999999 0.9374999999999996 -0.9375
v -0.5625 0.8125 -1.625
v -0.5625 0.8124999999999996 -0.9375
v -0.5625 0.8124999999999991 -1.0625
v -0.5625 -8.881784197001252e-16 -1.0625
v -1.6875 0.8124999999999991 -1.0625
v -1.6875 -8.881784197001252e-16 -1.0625
v -1.59375 0.84375 -1.5625
v -1.59375 2.656249999999999 -1.5625000000000004
v -0.53125 0.8437499999999991 -1.5625
v -0.53125 2.65625 -1.5625000000000004
v -1.6874999999999996 3.375 -1.0625
v -1.6874999999999996 2.624999999999999 -1.5624999999999996
v -1.6874999999999996 2.625 -1.0625
v -0.5624999999999996 3.375 -1.0625
v -0.5624999999999996 2.625 -1.5625
v -0.5624999999999996 2.625 -1.0625
v -0.5624999999999997 3.250000000081323 -1.0000000002439746
v -0.5624999999999997 3.2500000002439733 -1.1250000002439746
v -1.5624999999999993 3.250000000081319 -1.0000000002439746
v -1.5624999999999993 3.2500000002439693 -1.1250000002439746
v -0.5625000000000002 3.375000000081323 -1.0000000000813247
v -1.5624999999999998 3.375000000081319 -1.0000000000813247
v -1.6875000000000009 3.249999999918674 1.1874999997560256
v -1.6875000000000009 3.2499999997560245 1.3124999997560256
v -0.6250000000000006 3.249999999918661 1.1874999997560252
v -0.6250000000000006 3.2499999997560116 1.3124999997560252
v -1.6875000000000007 3.374999999918674 1.187499999918675
v -0.6250000000000004 3.374999999918661 1.1874999999186748
v -0.59375 3.28125 1.2499999999999938
v -1.84375 3.28125 1.2499999999999936
v -0.59375 -0.15625 1.2500000000000064
v -1.84375 -0.15625 1.2500000000000064
v 1.71875 3.46875 1.6874999999999938
v -1.71875 3.46875 1.6874999999999933
v 1.71875 0.03125 1.6875000000000067
v -1.71875 0.03125 1.6875000000000062
v -1.6249999999999996 0.125000007068242 1.225000003107743
v -1.6249999999999996 7.068241991703417e-9 1.2249999972175418
v -0.625 0.125000007068242 1.2250000031077428
v -0.625 7.068241991703417e-9 1.224999997217542
v -1.6249999999999996 0.12500000471216133 1.2750000031077429
v -0.625 0.12500000471216133 1.2750000031077424
v 1.6875000000000004 3.2500000000813283 -1.2500000002439746
v 1.6875000000000004 3.250000000243978 -1.3750000002439746
v -0.49999999999999933 3.2500000000813194 -1.2500000002439746
v -0.49999999999999933 3.2500000002439693 -1.3750000002439746
v 1.6874999999999998 3.3750000000813283 -1.2500000000813247
v -0.4999999999999998 3.3750000000813194 -1.2500000000813247
v 1.6875000000000002 3.4374999999999987 -1.3125
v 1.6875 2.6874999999999987 -1.3125
v 1.6875 2.6874999999999987 -1.5625
v -0.5000000000000002 3.4375 -1.3125
v -0.5 2.6874999999999996 -1.3125
v -0.5 2.6874999999999996 -1.5625
vt 0.52734375 0.5703125
vt 0.484375 0.5703125
vt 0.484375 0.359375
vt 0.52734375 0.359375
vt 0.2578125 0.296875
vt 0.2578125 0.5078125
vt 0.21484375 0.5078125
vt 0.21484375 0.296875
vt 0.375 0.16015625
vt 0.375 0.37109375
vt 0.37109375 0.37109375
vt 0.37109375 0.16015625
vt 0.6484375 0.5859375
vt 0.6484375 0.62109375
vt 0.515625 0.62109375
vt 0.515625 0.5859375
vt 0.66015625 0.55078125
vt 0.66015625 0.5859375
vt 0.52734375 0.5859375
vt 0.52734375 0.55078125
vt 0.765625 0.40234375
vt 0.765625 0.41015625
vt 0.6328125 0.41015625
vt 0.6328125 0.40234375
vt 0.359375 0.296875
vt 0.359375 0.5078125
vt 0.32421875 0.5078125
vt 0.32421875 0.296875
vt 0.43359375 0.47265625
vt 0.4375 0.47265625
vt 0.4375 0.5078125
vt 0.43359375 0.5078125
vt 0.40625 0.3359375
vt 0.40625 0.37109375
vt 0.40234375 0.37109375
vt 0.40234375 0.3359375
vt 0.37890625 0.37109375
vt 0.375 0.37109375
vt 0.375 0.16015625
vt 0.37890625 0.16015625
vt 0.66015625 0.65625
vt 0.66015625 0.69140625
vt 0.515625 0.69140625
vt 0.515625 0.65625
vt 0.66015625 0.515625
vt 0.66015625 0.55078125
vt 0.52734375 0.55078125
vt 0.52734375 0.515625
vt 0.765625 0.39453125
vt 0.765625 0.40234375
vt 0.6328125 0.40234375
vt 0.6328125 0.39453125
vt 0.66015625 0.48046875
vt 0.66015625 0.515625
vt 0.52734375 0.515625
vt 0.52734375 0.48046875
vt 0.765625 0.37109375
vt 0.765625 0.37890625
vt 0.6328125 0.37890625
vt 0.6328125 0.37109375
vt 0.6328125 0.37890625
vt 0.765625 0.37890625
vt 0.765625 0.38671875
vt 0.6328125 0.38671875
vt 0.66015625 0.62109375
vt 0.66015625 0.65625
vt 0.515625 0.65625
vt 0.515625 0.62109375
vt 0.65234375 0.8984375
vt 0.65234375 0.9453125
vt 0.5078125 0.9453125
vt 0.5078125 0.8984375
vt 0.65234375 0.8515625
vt 0.65234375 0.8984375
vt 0.5078125 0.8984375
vt 0.5078125 0.8515625
vt 0.65234375 0.734375
vt 0.65234375 0.77734375
vt 0.515625 0.77734375
vt 0.515625 0.734375
vt 0.65234375 0.69140625
vt 0.65234375 0.734375
vt 0.515625 0.734375
vt 0.515625 0.69140625
vt 0.6640625 0.36328125
vt 0.6640625 0.37109375
vt 0.52734375 0.37109375
vt 0.52734375 0.36328125
vt 0.30078125 0.34375
vt 0.30078125 0.39453125
vt 0.2578125 0.39453125
vt 0.2578125 0.34375
vt 0.43359375 0.45703125
vt 0.43359375 0.5078125
vt 0.4296875 0.5078125
vt 0.4296875 0.45703125
vt 0.64453125 0.9453125
vt 0.64453125 1
vt 0.5078125 1
vt 0.5078125 0.9453125
vt 0.21484375 0.78515625
vt 0.21484375 1
vt 0 1
vt 0 0.78515625
vt 0.4296875 1
vt 0.21484375 1
vt 0.21484375 0.78515625
vt 0.4296875 0.78515625
vt 0.32421875 0.39453125
vt 0.31640625 0.39453125
vt 0.31640625 0.2578125
vt 0.32421875 0.2578125
vt 0.6328125 0.41796875
vt 0.76953125 0.41796875
vt 0.76953125 0.42578125
vt 0.6328125 0.42578125
vt 0.76953125 0.42578125
vt 0.76953125 0.43359375
vt 0.6328125 0.43359375
vt 0.6328125 0.42578125
vt 0.3828125 0.234375
vt 0.3828125 0.37109375
vt 0.37890625 0.37109375
vt 0.37890625 0.234375
vt 0.21484375 0.5703125
vt 0 0.5703125
vt 0 0.35546875
vt 0.21484375 0.35546875
vt 0.765625 0.38671875
vt 0.765625 0.39453125
vt 0.6328125 0.39453125
vt 0.6328125 0.38671875
vt 0.3828125 0.37109375
vt 0.3828125 0.23828125
vt 0.38671875 0.23828125
vt 0.38671875 0.37109375
vt 0.30859375 0.2421875
vt 0.31640625 0.2421875
vt 0.31640625 0.39453125
vt 0.30859375 0.39453125
vt 0.59765625 0.43359375
vt 0.75 0.43359375
vt 0.75 0.44140625
vt 0.59765625 0.44140625
vt 0.21484375 0.5703125
vt 0.21484375 0.78515625
vt 0 0.78515625
vt 0 0.5703125
vt 0.21484375 0.5703125
vt 0.21484375 0.5078125
vt 0.44140625 0.5078125
vt 0.44140625 0.5703125
vt 0.7421875 0.77734375
vt 0.7421875 0.8046875
vt 0.515625 0.8046875
vt 0.515625 0.77734375
vt 0.30859375 0.39453125
vt 0.30078125 0.39453125
vt 0.30078125 0.16796875
vt 0.30859375 0.16796875
vt 0.59765625 0.44140625
vt 0.82421875 0.44140625
vt 0.82421875 0.44921875
vt 0.59765625 0.44921875
vt 0.3984375 0.30078125
vt 0.3984375 0.37109375
vt 0.39453125 0.37109375
vt 0.39453125 0.30078125
vt 0.40234375 0.30078125
vt 0.40234375 0.37109375
vt 0.3984375 0.37109375
vt 0.3984375 0.30078125
vt 0.47265625 0.78515625
vt 0.4296875 0.78515625
vt 0.4296875 0.5703125
vt 0.47265625 0.5703125
vt 0.484375 0.35546875
vt 0.484375 0.5703125
vt 0.44140625 0.5703125
vt 0.44140625 0.35546875
vt 0.44140625 0.29296875
vt 0.44140625 0.5078125
vt 0.4375 0.5078125
vt 0.4375 0.29296875
vt 0.515625 0.78515625
vt 0.47265625 0.78515625
vt 0.47265625 0.5703125
vt 0.515625 0.5703125
vt 0.37109375 0.15625
vt 0.37109375 0.37109375
vt 0.3671875 0.37109375
vt 0.3671875 0.15625
vt 0.359375 0.45703125
vt 0.359375 0.4140625
vt 0.421875 0.4140625
vt 0.421875 0.45703125
vt 0.52734375 0.43359375
vt 0.52734375 0.390625
vt 0.58984375 0.390625
vt 0.58984375 0.43359375
vt 0.58984375 0.3828125
vt 0.58984375 0.390625
vt 0.52734375 0.390625
vt 0.52734375 0.3828125
vt 0.6328125 0.43359375
vt 0.58984375 0.43359375
vt 0.58984375 0.37109375
vt 0.6328125 0.37109375
vt 0.359375 0.4140625
vt 0.359375 0.37109375
vt 0.421875 0.37109375
vt 0.421875 0.4140625
vt 0.58984375 0.375
vt 0.58984375 0.3828125
vt 0.52734375 0.3828125
vt 0.52734375 0.375
vt 0.4296875 0.45703125
vt 0.4296875 0.5078125
vt 0.359375 0.5078125
vt 0.359375 0.45703125
vt 0.32421875 0.39453125
vt 0.32421875 0.5078125
vt 0.2578125 0.5078125
vt 0.2578125 0.39453125
vt 0.59765625 0.48046875
vt 0.59765625 0.44921875
vt 0.66796875 0.44921875
vt 0.66796875 0.48046875
vt 0.59765625 0.43359375
vt 0.59765625 0.48046875
vt 0.52734375 0.48046875
vt 0.52734375 0.43359375
vt 0.39453125 0.37109375
vt 0.38671875 0.37109375
vt 0.38671875 0.30859375
vt 0.39453125 0.30859375
vt 0 0.34765625
vt 0.0625 0.34765625
vt 0.0625 0.35546875
vt 0 0.35546875
vt 0.66015625 0.35546875
vt 0.66015625 0.36328125
vt 0.59375 0.36328125
vt 0.59375 0.35546875
vt 0.52734375 0.35546875
vt 0.59375 0.35546875
vt 0.59375 0.36328125
vt 0.52734375 0.36328125
vt 0.5078125 1
vt 0.4296875 1
vt 0.4296875 0.78515625
vt 0.5078125 0.78515625
vt 0.4296875 0.78515625
vt 0.21484375 0.78515625
vt 0.21484375 0.5703125
vt 0.4296875 0.5703125
vt 0.70703125 0.9921875
vt 0.70703125 1
vt 0.64453125 1
vt 0.64453125 0.9921875
vt 0.58984375 0.375
vt 0.52734375 0.375
vt 0.52734375 0.37109375
vt 0.58984375 0.37109375
vt 0.3671875 0.37109375
vt 0.359375 0.37109375
vt 0.359375 0.234375
vt 0.3671875 0.234375
vt 0.6328125 0.41015625
vt 0.76953125 0.41015625
vt 0.76953125 0.41796875
vt 0.6328125 0.41796875
vt 0.421875 0.3203125
vt 0.4375 0.3203125
vt 0.4375 0.45703125
vt 0.421875 0.45703125
vt 0.64453125 0.8046875
vt 0.64453125 0.8515625
vt 0.5078125 0.8515625
vt 0.5078125 0.8046875
vn -1 0 1.6148698540002277e-16
vn 1 0 -1.6148698540002277e-16
vn 0 0 -1
vn 0 1 0
vn 0 -1 0
vn 0 0 -1
vn -1 0 0
vn 0 1 0
vn 0 -1 0
vn 0 0 -1
vn 0 -1 0
vn 0 1 0
vn 0 0 -1
vn 0 -1 0
vn -3.970679994087312e-15 -1 -1.3011955957153987e-9
vn -1.044915736216117e-16 1.301197372072238e-9 -1
vn 0 -1 0
vn 0 0 -1
vn 0 0 -1
vn 0 1 0
vn 0 -1 0
vn 0 0 1
vn -1 0 0
vn 0 0 1
vn 0 0 -1
vn 0 1 0
vn -1 2.583791766400364e-16 0
vn 4.6227840466241406e-24 -1 -1.301198031861922e-9
vn 1 -2.641585938110323e-25 2.0301221021717157e-16
vn 1 0 0
vn 0 0.9999999999999989 4.7121610740370156e-8
vn 1 4.0048772379205644e-15 2.583791766400354e-16
vn -1 -7.424573225609523e-31 1.0449157878825003e-16
vn 4.4547439353657293e-29 1 2.507797890918001e-15
vn 0 -1 -1.3011932272396134e-9
vn -1 0 0
vn 0 1 0
vn -1.0719394720518757e-16 0.8660254037844383 -0.5000000000000007
vn 0 0 1
vn 4.1652505199730015e-15 -1 -1.3011920430017199e-9
vn 5.4198352275251394e-24 -1.3012027011427563e-9 1
vn -1 3.0129665734481406e-15 1.943153189308587e-16
vn -1 5.92376537335526e-15 7.69925959613272e-16
vn 1 0 0
vn -1 0 0
vn 0 0 1
vn 1 0 0
vn 0 0 1
vn 0 1 0
vn 0 -1 0
vn 0 0 1
vn 4.440892098500626e-16 1 0
vn 0 -1 0
vn 0 0 1
vn 0 0 -1
vn 2.048158131202628e-31 -2.4501473646900016e-16 -1
vn 7.894919286223342e-16 -1 1.776356839400252e-15
vn 0 0 1
vn 3.996802888650565e-15 -1 -1.3012027011427563e-9
vn 5.2006365151509924e-24 -1.3011991484290777e-9 1
vn -1.2121023139972232e-14 -1 -1.3011955957153987e-9
vn -4.17966299381178e-16 1.3011955957153987e-9 -1
vn -1.7763568394002506e-16 3.746498061280528e-15 1
vn -1.291895883200182e-16 3.746498061280528e-15 1
vn -2.2204460492503116e-16 4.7121609725309046e-8 -0.9999999999999989
vn 1.0463100003748707e-23 0.9999999999999989 4.712161327802289e-8
vn 4.0602442043434294e-15 -1 -1.3011991484290775e-9
vn 5.2831863011057676e-24 -1.3011991484290775e-9 1
vn -4.0602442043434295e-16 -1 0
vn 0 0 1
usemtl m_9d9d69b1-06c4-a0ba-c8b6-1d146895f9c7
f 2/1/1 1/2/1 3/3/1 4/4/1
f 7/5/2 5/6/2 6/7/2 8/8/2
f 3/9/3 1/10/3 5/11/3 7/12/3
f 9/13/4 10/14/4 14/15/4 13/16/4
f 12/17/5 11/18/5 15/19/5 16/20/5
f 16/21/6 14/22/6 10/23/6 12/24/6
f 23/25/7 21/26/7 22/27/7 24/28/7
f 21/29/8 17/30/8 18/31/8 22/32/8
f 20/33/9 19/34/9 23/35/9 24/36/9
f 22/37/10 18/38/10 20/39/10 24/40/10
f 26/41/11 25/42/11 27/43/11 28/44/11
f 29/45/12 30/46/12 33/47/12 32/48/12
f 34/49/13 33/50/13 30/51/13 31/52/13
f 31/53/14 35/54/14 36/55/14 34/56/14
f 38/57/15 37/58/15 39/59/15 40/60/15
f 39/61/16 37/62/16 41/63/16 42/64/16
f 45/65/17 44/66/17 47/67/17 48/68/17
f 48/69/18 46/70/18 43/71/18 45/72/18
f 52/73/19 51/74/19 49/75/19 50/76/19
f 53/77/20 54/78/20 58/79/20 57/80/20
f 56/81/21 55/82/21 59/83/21 60/84/21
f 55/85/22 53/86/22 57/87/22 59/88/22
f 65/89/23 63/90/23 64/91/23 66/92/23
f 62/93/24 61/94/24 63/95/24 65/96/24
f 67/97/25 68/98/25 70/99/25 69/100/25
f 71/101/26 72/102/26 74/103/26 73/104/26
f 75/105/27 76/106/27 78/107/27 77/108/27
f 80/109/28 79/110/28 81/111/28 82/112/28
f 81/113/29 79/114/29 83/115/29 84/116/29
f 86/117/30 85/118/30 87/119/30 88/120/30
f 87/121/31 85/122/31 89/123/31 90/124/31
f 94/125/32 92/126/32 91/127/32 93/128/32
f 96/129/33 95/130/33 97/131/33 98/132/33
f 97/133/34 95/134/34 99/135/34 100/136/34
f 102/137/35 101/138/35 103/139/35 104/140/35
f 103/141/36 101/142/36 105/143/36 106/144/36
f 107/145/37 108/146/37 110/147/37 109/148/37
f 111/149/38 112/150/38 114/151/38 113/152/38
f 115/153/39 116/154/39 118/155/39 117/156/39
f 120/157/40 119/158/40 121/159/40 122/160/40
f 121/161/41 119/162/41 123/163/41 124/164/41
f 125/165/42 126/166/42 128/167/42 127/168/42
f 129/169/43 130/170/43 132/171/43 131/172/43
f 134/173/44 133/174/44 135/175/44 136/176/44
f 139/177/45 137/178/45 138/179/45 140/180/45
f 135/181/46 133/182/46 137/183/46 139/184/46
f 142/185/47 141/186/47 143/187/47 144/188/47
f 143/189/48 141/190/48 145/191/48 146/192/48
f 147/193/49 148/194/49 152/195/49 151/196/49
f 150/197/50 149/198/50 153/199/50 154/200/50
f 154/201/51 152/202/51 148/203/51 150/204/51
f 155/205/52 156/206/52 160/207/52 159/208/52
f 158/209/53 157/210/53 161/211/53 162/212/53
f 162/213/54 160/214/54 156/215/54 158/216/54
f 166/217/55 165/218/55 163/219/55 164/220/55
f 167/221/56 168/222/56 170/223/56 169/224/56
f 173/225/57 172/226/57 175/227/57 176/228/57
f 176/229/58 174/230/58 171/231/58 173/232/58
f 178/233/59 177/234/59 179/235/59 180/236/59
f 179/237/60 177/238/60 181/239/60 182/240/60
f 184/241/61 183/242/61 185/243/61 186/244/61
f 185/245/62 183/246/62 187/247/62 188/248/62
f 189/249/63 190/250/63 192/251/63 191/252/63
f 193/253/64 194/254/64 196/255/64 195/256/64
f 198/257/65 197/258/65 199/259/65 200/260/65
f 199/261/66 197/262/66 201/263/66 202/264/66
f 204/265/67 203/266/67 205/267/67 206/268/67
f 205/269/68 203/270/68 207/271/68 208/272/68
f 211/273/69 210/274/69 213/275/69 214/276/69
f 210/277/70 209/278/70 212/279/70 213/280/70